<mxfile host="app.diagrams.net" modified="2024-06-17T17:56:22.543Z" agent="Mozilla/5.0 (Windows NT 10.0; Win64; x64) AppleWebKit/537.36 (KHTML, like Gecko) Chrome/125.0.0.0 Safari/537.36" etag="C0JknK1Vbsrreh5Rm3U8" version="24.5.5" type="github">
  <diagram name="Page-1" id="lPv18uXPyyOn_tqmDmDi">
    <mxGraphModel dx="1290" dy="557" grid="1" gridSize="10" guides="1" tooltips="1" connect="1" arrows="1" fold="1" page="1" pageScale="1" pageWidth="827" pageHeight="1169" math="0" shadow="0">
      <root>
        <mxCell id="0" />
        <mxCell id="1" parent="0" />
        <mxCell id="40zPaDP918bft0vZC0bT-28" value="&lt;span style=&quot;text-align: left;&quot;&gt;Doctor&lt;/span&gt;" style="rounded=0;whiteSpace=wrap;html=1;" vertex="1" parent="1">
          <mxGeometry x="330" y="140" width="120" height="30" as="geometry" />
        </mxCell>
        <mxCell id="40zPaDP918bft0vZC0bT-29" value="&lt;span style=&quot;text-align: left;&quot;&gt;&lt;u&gt;&lt;b&gt;DoctorID&lt;/b&gt;&lt;/u&gt;&lt;/span&gt;" style="rounded=0;whiteSpace=wrap;html=1;" vertex="1" parent="1">
          <mxGeometry x="330" y="170" width="120" height="30" as="geometry" />
        </mxCell>
        <mxCell id="40zPaDP918bft0vZC0bT-31" value="&lt;span style=&quot;text-align: left;&quot;&gt;Fname&lt;/span&gt;" style="rounded=0;whiteSpace=wrap;html=1;" vertex="1" parent="1">
          <mxGeometry x="450" y="170" width="120" height="30" as="geometry" />
        </mxCell>
        <mxCell id="40zPaDP918bft0vZC0bT-32" value="&lt;span style=&quot;text-align: left;&quot;&gt;Lname&lt;/span&gt;" style="rounded=0;whiteSpace=wrap;html=1;" vertex="1" parent="1">
          <mxGeometry x="570" y="170" width="120" height="30" as="geometry" />
        </mxCell>
        <mxCell id="40zPaDP918bft0vZC0bT-33" value="&lt;span style=&quot;text-align: left;&quot;&gt;Specialty&lt;/span&gt;" style="rounded=0;whiteSpace=wrap;html=1;" vertex="1" parent="1">
          <mxGeometry x="810" y="170" width="120" height="30" as="geometry" />
        </mxCell>
        <mxCell id="40zPaDP918bft0vZC0bT-34" value="&lt;span style=&quot;text-align: left;&quot;&gt;Gender&lt;/span&gt;" style="rounded=0;whiteSpace=wrap;html=1;" vertex="1" parent="1">
          <mxGeometry x="690" y="170" width="120" height="30" as="geometry" />
        </mxCell>
        <mxCell id="40zPaDP918bft0vZC0bT-35" value="&lt;span style=&quot;text-align: left;&quot;&gt;PhoneNumber&lt;/span&gt;" style="rounded=0;whiteSpace=wrap;html=1;" vertex="1" parent="1">
          <mxGeometry x="930" y="170" width="120" height="30" as="geometry" />
        </mxCell>
        <mxCell id="40zPaDP918bft0vZC0bT-38" value="&lt;span style=&quot;text-align: left;&quot;&gt;Patient&lt;/span&gt;" style="rounded=0;whiteSpace=wrap;html=1;" vertex="1" parent="1">
          <mxGeometry x="210" y="300" width="120" height="30" as="geometry" />
        </mxCell>
        <mxCell id="40zPaDP918bft0vZC0bT-39" value="&lt;span style=&quot;text-align: left;&quot;&gt;&lt;u&gt;&lt;b&gt;PatientID&lt;/b&gt;&lt;/u&gt;&lt;/span&gt;" style="rounded=0;whiteSpace=wrap;html=1;" vertex="1" parent="1">
          <mxGeometry x="210" y="330" width="120" height="30" as="geometry" />
        </mxCell>
        <mxCell id="40zPaDP918bft0vZC0bT-43" value="&lt;span style=&quot;text-align: left;&quot;&gt;DOB&lt;/span&gt;" style="rounded=0;whiteSpace=wrap;html=1;" vertex="1" parent="1">
          <mxGeometry x="690" y="330" width="120" height="30" as="geometry" />
        </mxCell>
        <mxCell id="40zPaDP918bft0vZC0bT-44" value="&lt;span style=&quot;text-align: left;&quot;&gt;PhoneNumber&lt;/span&gt;" style="rounded=0;whiteSpace=wrap;html=1;" vertex="1" parent="1">
          <mxGeometry x="810" y="330" width="120" height="30" as="geometry" />
        </mxCell>
        <mxCell id="40zPaDP918bft0vZC0bT-45" value="&lt;span style=&quot;text-align: left;&quot;&gt;Fname&lt;/span&gt;" style="rounded=0;whiteSpace=wrap;html=1;" vertex="1" parent="1">
          <mxGeometry x="330" y="330" width="120" height="30" as="geometry" />
        </mxCell>
        <mxCell id="40zPaDP918bft0vZC0bT-47" value="&lt;span style=&quot;text-align: left;&quot;&gt;Lname&lt;/span&gt;" style="rounded=0;whiteSpace=wrap;html=1;" vertex="1" parent="1">
          <mxGeometry x="450" y="330" width="120" height="30" as="geometry" />
        </mxCell>
        <mxCell id="40zPaDP918bft0vZC0bT-48" value="&lt;span style=&quot;text-align: left;&quot;&gt;Gender&lt;/span&gt;" style="rounded=0;whiteSpace=wrap;html=1;" vertex="1" parent="1">
          <mxGeometry x="570" y="330" width="120" height="30" as="geometry" />
        </mxCell>
        <mxCell id="40zPaDP918bft0vZC0bT-49" value="&lt;span style=&quot;text-align: left;&quot;&gt;Reason&lt;/span&gt;" style="rounded=0;whiteSpace=wrap;html=1;" vertex="1" parent="1">
          <mxGeometry x="930" y="330" width="120" height="30" as="geometry" />
        </mxCell>
        <mxCell id="40zPaDP918bft0vZC0bT-50" value="&lt;span style=&quot;text-align: left;&quot;&gt;Address&lt;/span&gt;" style="rounded=0;whiteSpace=wrap;html=1;" vertex="1" parent="1">
          <mxGeometry x="1050" y="330" width="120" height="30" as="geometry" />
        </mxCell>
      </root>
    </mxGraphModel>
  </diagram>
</mxfile>
